<svg xmlns="http://www.w3.org/2000/svg" viewBox="0 0 800 450">
  <defs>
    <linearGradient id="bg" x1="0" y1="0" x2="1" y2="1">
      <stop offset="0" stop-color="#0d2330"/><stop offset="1" stop-color="#120a1e"/>
    </linearGradient>
    <linearGradient id="ac" x1="0" y1="0" x2="1" y2="1">
      <stop offset="0" stop-color="#38e0c9"/><stop offset="0.5" stop-color="#6aa8ff"/><stop offset="1" stop-color="#b18cff"/>
    </linearGradient>
  </defs>
  <rect width="800" height="450" fill="url(#bg)"/>
  <!-- transformer / attention node graph -->
  <g stroke="url(#ac)" stroke-width="1.6" opacity="0.55">
    <line x1="250" y1="120" x2="400" y2="190"/><line x1="250" y1="120" x2="400" y2="260"/><line x1="250" y1="120" x2="400" y2="330"/>
    <line x1="250" y1="225" x2="400" y2="190"/><line x1="250" y1="225" x2="400" y2="260"/><line x1="250" y1="225" x2="400" y2="330"/>
    <line x1="250" y1="330" x2="400" y2="190"/><line x1="250" y1="330" x2="400" y2="260"/><line x1="250" y1="330" x2="400" y2="330"/>
    <line x1="400" y1="190" x2="560" y2="225"/><line x1="400" y1="260" x2="560" y2="225"/><line x1="400" y1="330" x2="560" y2="225"/>
  </g>
  <g fill="#0a0e16" stroke="url(#ac)" stroke-width="3">
    <circle cx="250" cy="120" r="16"/><circle cx="250" cy="225" r="16"/><circle cx="250" cy="330" r="16"/>
    <circle cx="400" cy="190" r="16"/><circle cx="400" cy="260" r="16"/><circle cx="400" cy="330" r="16"/>
    <circle cx="560" cy="225" r="20"/>
  </g>
  <circle cx="560" cy="225" r="9" fill="url(#ac)"/>
  <text x="120" y="392" font-family="JetBrains Mono, monospace" font-size="22" fill="#9aabc4">Biblio_LLM</text>
  <text x="120" y="420" font-family="JetBrains Mono, monospace" font-size="14" fill="#6f819c">C++17 · Transformer from scratch · Qt</text>
</svg>
